PathFileType	4	(X/Y/Z)	/Users/itak/Documents/Research/Walk-IL/dataset/trc/00046_00004.trc
DataRate	CameraRate	NumFrames	NumMarkers	Units	OrigDataRate	OrigDataStartFrame	OrigNumFrames
100.000000	100.000000	4	53	mm	100.000000	0	482
Frame#	Time	RPSI			LPSI			L3			STRN			T10			C7			CLAV			RBAK			LBAK			LSHO			LUPA			LAEL			LAOL			LWTS			LWPS			LFRA			LIFD			LHPS			LHTS			RSHO			RUPA			RAEL			RAOL			RWTS			RWPS			RFRA			RIFD			RHTS			RHPS			RBHD			LFHD			RFHD			LBHD			LHIP			RASI			LASI			LKNE			LTHI			LANK			LTIP			LTOE			LMT1			LMT5			LHEE			RKNE			RTHI			RANK			RTIP			RTOE			RMT1			RMT5			RHEE			RHIP			
		X1	Y1	Z1	X2	Y2	Z2	X3	Y3	Z3	X4	Y4	Z4	X5	Y5	Z5	X6	Y6	Z6	X7	Y7	Z7	X8	Y8	Z8	X9	Y9	Z9	X10	Y10	Z10	X11	Y11	Z11	X12	Y12	Z12	X13	Y13	Z13	X14	Y14	Z14	X15	Y15	Z15	X16	Y16	Z16	X17	Y17	Z17	X18	Y18	Z18	X19	Y19	Z19	X20	Y20	Z20	X21	Y21	Z21	X22	Y22	Z22	X23	Y23	Z23	X24	Y24	Z24	X25	Y25	Z25	X26	Y26	Z26	X27	Y27	Z27	X28	Y28	Z28	X29	Y29	Z29	X30	Y30	Z30	X31	Y31	Z31	X32	Y32	Z32	X33	Y33	Z33	X34	Y34	Z34	X35	Y35	Z35	X36	Y36	Z36	X37	Y37	Z37	X38	Y38	Z38	X39	Y39	Z39	X40	Y40	Z40	X41	Y41	Z41	X42	Y42	Z42	X43	Y43	Z43	X44	Y44	Z44	X45	Y45	Z45	X46	Y46	Z46	X47	Y47	Z47	X48	Y48	Z48	X49	Y49	Z49	X50	Y50	Z50	X51	Y51	Z51	X52	Y52	Z52	X53	Y53	Z53	

1	0	-1261.744750976562	1077.283935546875	209.5229187011719	-1272.093627929688	1064.626220703125	45.618408203125	-1273.49072265625	1126.55859375	117.6846160888672	-1061.521118164062	1327.865844726562	108.8563995361328	-1307.046875	1268.740600585938	107.5349197387695	-1268.659423828125	1538.512939453125	88.40631103515625	-1107.809692382812	1451.908447265625	99.66056823730469	-1316.222290039062	1401.448486328125	171.2727813720703	-1282.962768554688	1492.718383789062	-8.931352615356445	-1179.1865234375	1502.106201171875	-81.45908355712891	-1201.74658203125	1371.906127929688	-155.192138671875	-1189.028930664062	1153.076904296875	-174.3885803222656	-1245.2060546875	1141.151000976562	-85.19035339355469	-1101.278076171875	900.650146484375	-113.7449188232422	-1178.143310546875	886.47216796875	-156.8363342285156	-1174.454711914062	1037.334350585938	-177.8911285400391	-1073.209716796875	722.2597045898438	-86.82425689697266	-1145.157592773438	796.3257446289062	-154.2827606201172	-1080.44482421875	806.6412963867188	-124.6066970825195	-1194.848022460938	1529.16748046875	266.0776672363281	-1208.352416992188	1460.54248046875	338.7891540527344	-1240.55322265625	1193.406127929688	370.1725463867188	-1236.912231445312	1162.91162109375	274.33935546875	-1113.632690429688	932.6383056640625	352.3998718261719	-1178.73583984375	919.9814453125	415.5975646972656	-1228.385620117188	1117.908447265625	388.8253173828125	-1097.773681640625	747.0602416992188	340.9803771972656	-1081.2353515625	823.7156372070312	369.4676208496094	-1137.019897460938	820.1483764648438	418.9424438476562	-1235.881591796875	1711.537109375	19.77525520324707	-1063.28466796875	1757.530639648438	145.1203308105469	-1061.38525390625	1753.988525390625	46.65667724609375	-1232.189331054688	1715.782104492188	164.4277038574219	-1176.441650390625	960.4769897460938	-65.78388977050781	-1045.96435546875	1003.144348144531	228.0659027099609	-1061.421020507812	1012.912353515625	-6.239790439605713	-1124.35546875	518.0745849609375	0.7283072471618652	-1148.051147460938	653.9042358398438	-41.36711120605469	-1210.925659179688	40.21006774902344	18.18239784240723	-1197.761352539062	285.6120910644531	-10.73572540283203	-995.6806030273438	41.97121429443359	96.72538757324219	-1056.199584960938	51.3831787109375	109.4163513183594	-1086.289306640625	41.32358932495117	6.692089080810547	-1283.594970703125	46.61080932617188	66.00751495361328	-1115.963256835938	530.8776245117188	266.5122375488281	-1115.965698242188	799.2432250976562	308.3899230957031	-1233.6396484375	47.44912338256836	254.9230651855469	-1139.963500976562	406.6009826660156	268.9856262207031	-1000.359008789062	47.13594818115234	217.0340576171875	-1063.705688476562	50.85443878173828	185.4338531494141	-1084.320678710938	45.87126159667969	279.3426818847656	-1273.107421875	31.17086601257324	220.4033203125	nan	nan	nan	
2	0.01	-1261.692260742188	1077.274658203125	209.7250061035156	-1272.005615234375	1064.626342773438	45.79071807861328	-1273.423583984375	1126.536254882812	117.8817138671875	-1061.535034179688	1327.879150390625	109.0641479492188	-1306.991333007812	1268.70703125	107.7433929443359	-1268.65771484375	1538.465087890625	88.55843353271484	-1107.80322265625	1451.940307617188	99.86568450927734	-1316.1376953125	1401.43603515625	171.5087890625	-1282.91748046875	1492.6904296875	-8.733415603637695	-1179.175415039062	1502.055053710938	-81.20922088623047	-1201.706298828125	1371.83984375	-154.9505004882812	-1188.95068359375	1153.016235351562	-174.1293182373047	-1245.137084960938	1141.113159179688	-84.90264892578125	-1101.267333984375	900.63720703125	-113.3900375366211	-1177.94775390625	886.4212036132812	-156.4539947509766	-1174.35400390625	1037.289184570312	-177.5649261474609	-1072.944702148438	722.1334228515625	-86.68328857421875	-1144.880004882812	796.2753295898438	-153.8781433105469	-1080.350708007812	806.7012329101562	-124.2070159912109	-1194.867309570312	1529.17333984375	266.2964477539062	-1208.312744140625	1460.56494140625	339.031494140625	-1240.419677734375	1193.406005859375	370.4592590332031	-1236.667724609375	1162.883666992188	274.7175598144531	-1113.352783203125	932.7507934570312	352.9070434570312	-1178.385864257812	920.0494384765625	416.027099609375	-1228.16796875	1117.939208984375	389.1545715332031	-1097.359741210938	747.1002807617188	341.5474243164062	-1080.79345703125	823.8280029296875	369.8092346191406	-1136.669921875	820.1803588867188	419.3725891113281	-1236.092895507812	1711.4765625	20.17713165283203	-1063.303344726562	1757.571411132812	145.185546875	-1061.583374023438	1754.091064453125	46.72039794921875	-1232.183837890625	1715.688232421875	164.7580413818359	-1176.31982421875	960.4949340820312	-65.58427429199219	-1045.884155273438	1003.142822265625	228.319091796875	-1061.240234375	1012.975830078125	-5.979604244232178	-1124.108520507812	518.0752563476562	0.9233818054199219	-1147.771606445312	653.8878173828125	-41.16320037841797	-1210.93359375	40.23101425170898	18.1892147064209	-1197.642700195312	285.6494750976562	-10.64551830291748	-995.6774291992188	41.96730041503906	96.73307800292969	-1056.201416015625	51.37559127807617	109.4264831542969	-1086.2880859375	41.3409538269043	6.714472770690918	-1283.579956054688	46.61141967773438	66.02629852294922	-1116.380615234375	530.9260864257812	266.6864013671875	-1115.8203125	799.28271484375	308.5238037109375	-1233.65087890625	47.41765213012695	254.9435272216797	-1140.345825195312	406.5733337402344	269.0767822265625	-1000.373840332031	47.11357879638672	217.0535736083984	-1063.73046875	50.84481811523438	185.4320526123047	-1084.330078125	45.87451171875	279.3417663574219	-1276.726318359375	35.42419052124023	217.3803100585938	nan	nan	nan	
3	0.02	-1261.626220703125	1077.267456054688	209.9774322509766	-1271.881591796875	1064.625610351562	46.0189208984375	-1273.347412109375	1126.508056640625	118.1242294311523	-1061.543701171875	1327.897094726562	109.3417816162109	-1306.919921875	1268.666870117188	108.0096282958984	-1268.6552734375	1538.403076171875	88.76956939697266	-1107.779052734375	1451.975708007812	100.1313705444336	-1316.024780273438	1401.419311523438	171.8107147216797	-1282.862426757812	1492.655517578125	-8.475184440612793	-1179.168334960938	1501.99365234375	-80.89350128173828	-1201.652587890625	1371.755493164062	-154.6427307128906	-1188.82568359375	1152.939575195312	-173.7822418212891	-1245.040649414062	1141.063110351562	-84.53224945068359	-1101.185791015625	900.6320190429688	-112.9349365234375	-1177.695678710938	886.355224609375	-155.9638671875	-1174.2265625	1037.228759765625	-177.1528778076172	-1072.601440429688	721.9530029296875	-86.44511413574219	-1144.552490234375	796.2192993164062	-153.3690185546875	-1080.20947265625	806.7621459960938	-123.689567565918	-1194.888916015625	1529.181030273438	266.5686645507812	-1208.275268554688	1460.59423828125	339.3355712890625	-1240.235229492188	1193.408081054688	370.8330383300781	-1236.348876953125	1162.848510742188	275.1888122558594	-1112.947875976562	932.8993530273438	353.5355224609375	-1177.9375	920.13720703125	416.5619506835938	-1227.89013671875	1117.975341796875	389.5693359375	-1096.821899414062	747.1721801757812	342.2460632324219	-1080.21337890625	823.9556884765625	370.2860717773438	-1136.192993164062	820.2351684570312	419.9208374023438	-1236.373046875	1711.416625976562	20.68940925598145	-1063.321655273438	1757.621948242188	145.2619018554688	-1061.842407226562	1754.212524414062	46.79352188110352	-1232.162353515625	1715.586791992188	165.2032165527344	-1176.176635742188	960.516357421875	-65.33407592773438	-1045.7802734375	1003.134155273438	228.6419525146484	-1061.01806640625	1013.0478515625	-5.653610706329346	-1123.811889648438	518.0778198242188	1.163983225822449	-1147.471435546875	653.885009765625	-40.92984008789062	-1210.943969726562	40.25813293457031	18.1966552734375	-1197.500854492188	285.6957092285156	-10.5352201461792	-995.6729736328125	41.96207046508789	96.74342346191406	-1056.203979492188	51.38008880615234	109.4290924072266	-1086.28662109375	41.36114501953125	6.739336013793945	-1283.564086914062	46.61396789550781	66.04588317871094	-1116.902954101562	530.975341796875	266.9109497070312	-1115.669311523438	799.3171997070312	308.7003784179688	-1233.661010742188	47.37579727172852	254.9738006591797	-1140.813232421875	406.5484924316406	269.2066345214844	-1000.39111328125	47.08964538574219	217.0735626220703	-1063.75732421875	50.83679962158203	185.4335784912109	-1084.344604492188	45.87712860107422	279.3468627929688	-1280.5390625	39.89786529541016	214.1977386474609	-1127.4306640625	977.07177734375	301.668212890625	
4	0.03	-1261.547485351562	1077.26416015625	210.2697601318359	-1271.7177734375	1064.624267578125	46.30023956298828	-1273.268188476562	1126.474975585938	118.4010009765625	-1061.542724609375	1327.920288085938	109.6851348876953	-1306.834716796875	1268.62255859375	108.3249969482422	-1268.6513671875	1538.3291015625	89.04061889648438	-1107.728149414062	1452.012451171875	100.4505081176758	-1315.8876953125	1401.398315429688	172.1681823730469	-1282.802612304688	1492.61572265625	-8.163824081420898	-1179.167114257812	1501.927612304688	-80.5264892578125	-1201.585327148438	1371.657348632812	-154.2788391113281	-1188.647338867188	1152.850952148438	-173.3511047363281	-1244.914672851562	1141.002197265625	-84.08930969238281	-1101.011474609375	900.6400756835938	-112.3888778686523	-1177.392578125	886.2767944335938	-155.3806915283203	-1174.07470703125	1037.154907226562	-176.6679077148438	-1072.178833007812	721.7235717773438	-86.08773040771484	-1144.189208984375	796.1622924804688	-152.7720642089844	-1080.01318359375	806.817138671875	-123.0728759765625	-1194.911010742188	1529.19189453125	266.8836364746094	-1208.247680664062	1460.629028320312	339.6880493164062	-1240.001831054688	1193.413452148438	371.2821960449219	-1235.972778320312	1162.808715820312	275.7266845703125	-1112.417236328125	933.0760498046875	354.2484130859375	-1177.402954101562	920.241943359375	417.1781921386719	-1227.561889648438	1118.014404296875	390.0535888671875	-1096.149169921875	747.2839965820312	343.0391235351562	-1079.504272460938	824.0988159179688	370.8912963867188	-1135.591796875	820.3179931640625	420.5666809082031	-1236.71728515625	1711.367309570312	21.29486656188965	-1063.334838867188	1757.67919921875	145.3426055908203	-1062.16064453125	1754.345336914062	46.87135696411133	-1232.113159179688	1715.488037109375	165.7601318359375	-1176.0146484375	960.5402221679688	-65.04007720947266	-1045.65771484375	1003.115356445312	229.0218353271484	-1060.764038085938	1013.121459960938	-5.277366638183594	-1123.488159179688	518.0828247070312	1.436910152435303	-1147.1865234375	653.9032592773438	-40.68629455566406	-1210.956176757812	40.29010391235352	18.20401000976562	-1197.345947265625	285.7489624023438	-10.41104793548584	-995.667236328125	41.95574951171875	96.75624847412109	-1056.208374023438	51.39387893676758	109.4256286621094	-1086.28466796875	41.382568359375	6.764673233032227	-1283.54931640625	46.61898040771484	66.06448364257812	-1117.507568359375	531.0191040039062	267.1783447265625	-1115.536743164062	799.338623046875	308.9190673828125	-1233.668212890625	47.32466888427734	255.0141296386719	-1141.343994140625	406.5332336425781	269.3747863769531	-1000.408752441406	47.06961059570312	217.0896911621094	-1063.782836914062	50.83266448974609	185.4398651123047	-1084.36572265625	45.87725830078125	279.3599243164062	-1283.902465820312	43.82707595825195	211.3862457275391	-1130.691284179688	975.110595703125	303.3175659179688	
